<mxfile host="app.diagrams.net" agent="Mozilla/5.0 (X11; Linux x86_64) AppleWebKit/537.36 (KHTML, like Gecko) Chrome/126.0.0.0 Safari/537.36 Edg/126.0.0.0" version="24.8.0">
  <diagram id="kgpKYQtTHZ0yAKxKKP6v" name="Page-1">
    <mxGraphModel dx="1846" dy="665" grid="1" gridSize="10" guides="1" tooltips="1" connect="1" arrows="1" fold="1" page="1" pageScale="1" pageWidth="850" pageHeight="1100" math="0" shadow="0">
      <root>
        <mxCell id="0" />
        <mxCell id="1" parent="0" />
        <mxCell id="JhqvpLTikjsviyqn9ahZ-9" style="edgeStyle=orthogonalEdgeStyle;rounded=0;orthogonalLoop=1;jettySize=auto;html=1;exitX=1;exitY=0.5;exitDx=0;exitDy=0;entryX=0;entryY=0.5;entryDx=0;entryDy=0;" edge="1" parent="1" source="JhqvpLTikjsviyqn9ahZ-1" target="JhqvpLTikjsviyqn9ahZ-3">
          <mxGeometry relative="1" as="geometry" />
        </mxCell>
        <mxCell id="JhqvpLTikjsviyqn9ahZ-1" value="Message Processor" style="rounded=1;whiteSpace=wrap;html=1;" vertex="1" parent="1">
          <mxGeometry x="380" y="430" width="120" height="60" as="geometry" />
        </mxCell>
        <mxCell id="JhqvpLTikjsviyqn9ahZ-7" style="edgeStyle=orthogonalEdgeStyle;rounded=0;orthogonalLoop=1;jettySize=auto;html=1;entryX=0;entryY=0.5;entryDx=0;entryDy=0;" edge="1" parent="1" source="JhqvpLTikjsviyqn9ahZ-2" target="JhqvpLTikjsviyqn9ahZ-1">
          <mxGeometry relative="1" as="geometry" />
        </mxCell>
        <mxCell id="JhqvpLTikjsviyqn9ahZ-19" style="edgeStyle=orthogonalEdgeStyle;rounded=0;orthogonalLoop=1;jettySize=auto;html=1;" edge="1" parent="1" source="JhqvpLTikjsviyqn9ahZ-2" target="JhqvpLTikjsviyqn9ahZ-5">
          <mxGeometry relative="1" as="geometry" />
        </mxCell>
        <mxCell id="JhqvpLTikjsviyqn9ahZ-2" value="Whatsapp API&lt;div&gt;&lt;br&gt;&lt;/div&gt;" style="html=1;verticalLabelPosition=bottom;align=center;labelBackgroundColor=#ffffff;verticalAlign=top;strokeWidth=2;strokeColor=#0080F0;shadow=0;dashed=0;shape=mxgraph.ios7.icons.chat;" vertex="1" parent="1">
          <mxGeometry x="70" y="370" width="70" height="40" as="geometry" />
        </mxCell>
        <mxCell id="JhqvpLTikjsviyqn9ahZ-10" style="edgeStyle=orthogonalEdgeStyle;rounded=0;orthogonalLoop=1;jettySize=auto;html=1;entryX=1;entryY=0.5;entryDx=0;entryDy=0;" edge="1" parent="1" source="JhqvpLTikjsviyqn9ahZ-3" target="JhqvpLTikjsviyqn9ahZ-4">
          <mxGeometry relative="1" as="geometry" />
        </mxCell>
        <mxCell id="JhqvpLTikjsviyqn9ahZ-18" style="edgeStyle=orthogonalEdgeStyle;rounded=0;orthogonalLoop=1;jettySize=auto;html=1;" edge="1" parent="1" source="JhqvpLTikjsviyqn9ahZ-3" target="JhqvpLTikjsviyqn9ahZ-1">
          <mxGeometry relative="1" as="geometry" />
        </mxCell>
        <mxCell id="JhqvpLTikjsviyqn9ahZ-3" value="event bridge scheduler" style="rounded=1;whiteSpace=wrap;html=1;" vertex="1" parent="1">
          <mxGeometry x="650" y="430" width="120" height="60" as="geometry" />
        </mxCell>
        <mxCell id="JhqvpLTikjsviyqn9ahZ-11" style="edgeStyle=orthogonalEdgeStyle;rounded=0;orthogonalLoop=1;jettySize=auto;html=1;exitX=0;exitY=0.5;exitDx=0;exitDy=0;" edge="1" parent="1" source="JhqvpLTikjsviyqn9ahZ-4" target="JhqvpLTikjsviyqn9ahZ-1">
          <mxGeometry relative="1" as="geometry" />
        </mxCell>
        <mxCell id="JhqvpLTikjsviyqn9ahZ-4" value="DLQ" style="shape=process;whiteSpace=wrap;html=1;backgroundOutline=1;" vertex="1" parent="1">
          <mxGeometry x="550" y="220" width="120" height="60" as="geometry" />
        </mxCell>
        <mxCell id="JhqvpLTikjsviyqn9ahZ-20" style="edgeStyle=orthogonalEdgeStyle;rounded=0;orthogonalLoop=1;jettySize=auto;html=1;exitX=0.5;exitY=0.5;exitDx=0;exitDy=0;exitPerimeter=0;" edge="1" parent="1" source="JhqvpLTikjsviyqn9ahZ-5">
          <mxGeometry relative="1" as="geometry">
            <mxPoint x="70" y="390" as="targetPoint" />
          </mxGeometry>
        </mxCell>
        <mxCell id="JhqvpLTikjsviyqn9ahZ-5" value="Actor" style="shape=umlActor;verticalLabelPosition=bottom;verticalAlign=top;html=1;outlineConnect=0;" vertex="1" parent="1">
          <mxGeometry x="-30" y="360" width="30" height="60" as="geometry" />
        </mxCell>
        <mxCell id="JhqvpLTikjsviyqn9ahZ-12" value="DymoDB" style="shape=cylinder3;whiteSpace=wrap;html=1;boundedLbl=1;backgroundOutline=1;size=15;" vertex="1" parent="1">
          <mxGeometry x="570" y="600" width="60" height="80" as="geometry" />
        </mxCell>
        <mxCell id="JhqvpLTikjsviyqn9ahZ-15" style="edgeStyle=orthogonalEdgeStyle;rounded=0;orthogonalLoop=1;jettySize=auto;html=1;exitX=0.5;exitY=1;exitDx=0;exitDy=0;entryX=0.017;entryY=0.588;entryDx=0;entryDy=0;entryPerimeter=0;" edge="1" parent="1" source="JhqvpLTikjsviyqn9ahZ-1" target="JhqvpLTikjsviyqn9ahZ-12">
          <mxGeometry relative="1" as="geometry" />
        </mxCell>
      </root>
    </mxGraphModel>
  </diagram>
</mxfile>
